# Blender 4.1.1
# www.blender.org
mtllib Lantern_1.mtl
o 1
v 0.197673 0.003564 -0.197673
v -0.156650 0.061471 -0.156650
v 0.156650 0.061471 0.156650
v 0.156650 0.061471 -0.156650
v 0.143887 0.115955 -0.143887
v -0.143887 0.115955 -0.143887
v 0.143887 0.115955 0.143887
v -0.197673 0.003564 0.197673
v -0.156650 0.061471 0.156650
v -0.143887 0.115955 0.143887
v 0.206551 0.571837 0.206551
v 0.206551 0.571836 -0.206552
v -0.206551 0.571836 -0.206551
v 0.206551 0.783712 -0.206552
v 0.206551 0.783713 0.206551
v -0.206551 0.783713 0.206551
v -0.206551 0.571837 0.206551
v -0.206551 0.783712 -0.206552
v -0.337280 0.920096 0.337280
v -0.339834 0.442223 -0.339834
v -0.337280 0.920096 -0.337280
v 0.340626 0.442194 0.339020
v 0.337280 0.920096 0.337280
v 0.338592 0.442271 -0.339827
v 0.337280 0.920096 -0.337280
v -0.206551 0.571836 -0.337280
v -0.206551 0.783712 -0.337280
v 0.206551 0.571837 0.337280
v 0.206551 0.783713 0.337280
v -0.206551 0.571837 0.337280
v -0.206551 0.783713 0.337280
v -0.337280 0.571837 0.206551
v -0.337280 0.783713 0.206551
v 0.337280 0.571836 -0.206552
v 0.337280 0.783712 -0.206552
v 0.337280 0.571837 0.206551
v 0.337280 0.783713 0.206551
v 0.206551 0.571836 -0.337280
v 0.206551 0.783712 -0.337280
v -0.337280 0.571836 -0.206552
v -0.337280 0.783712 -0.206552
v -0.339020 0.442194 0.340626
v -0.497721 0.398119 0.497721
v -0.497721 0.398119 -0.497721
v 0.497721 0.398119 0.497721
v 0.497721 0.398119 -0.497721
v -0.497721 0.301336 0.497721
v -0.497721 0.301336 -0.497721
v 0.497721 0.301336 0.497721
v 0.497721 0.301336 -0.497721
v -0.370404 0.301336 0.370404
v -0.370404 0.301336 -0.370404
v 0.370404 0.301336 0.370404
v 0.370404 0.301336 -0.370404
v -0.370404 0.000000 0.370404
v -0.370404 -0.000000 -0.370404
v 0.370404 0.000000 0.370404
v 0.370404 -0.000000 -0.370404
v -0.587204 0.920096 0.587204
v -0.587204 0.920095 -0.587204
v 0.587204 0.920096 0.587204
v 0.587204 0.920095 -0.587204
v -0.587204 1.002904 0.587204
v -0.587204 1.002904 -0.587204
v 0.587204 1.002904 0.587204
v 0.587204 1.002904 -0.587204
v 0.186804 1.294747 -0.186805
v 0.186804 1.294747 0.186804
v -0.186804 1.294747 -0.186805
v -0.186804 1.294747 0.186804
v -0.316752 1.103148 0.317458
v -0.187046 1.215544 0.186822
v 0.186822 1.215544 0.187046
v 0.317458 1.103148 0.316752
v 0.316752 1.103148 -0.317458
v 0.187046 1.215544 -0.186822
v -0.186822 1.215544 -0.187046
v -0.317458 1.103148 -0.316752
v 0.084883 1.389866 0.084883
v -0.084883 1.389866 0.084883
v -0.111287 1.340289 0.111722
v -0.111722 1.340289 -0.111288
v -0.084883 1.389866 -0.084883
v 0.111287 1.340289 -0.111722
v 0.084883 1.389866 -0.084883
v 0.111722 1.340289 0.111287
v 0.370404 0.013150 -0.180903
v -0.203385 0.000200 0.370404
v -0.177173 0.019617 -0.370404
v 0.143887 0.115955 -0.370404
v -0.199090 0.002005 -0.199090
v -0.143887 0.115955 -0.370404
v 0.161082 0.050286 0.370404
v 0.180903 0.013150 -0.370404
v -0.161082 0.050286 0.370404
v -0.370404 0.115955 -0.143887
v -0.370404 0.019617 -0.177173
v -0.370404 0.013150 0.180903
v 0.197673 0.003564 0.197673
v 0.370404 0.013150 0.180903
v 0.370404 0.115955 -0.143887
v 0.370404 0.115955 0.143887
v -0.143887 0.115955 0.370404
v -0.370404 0.115955 0.143887
v 0.203385 0.000200 0.370404
v 0.143887 0.115955 0.370404
vn -0.3959 0.8270 0.3992
vn -1.0000 0.0015 -0.0026
vn -1.0000 0.0076 -0.0059
vn -1.0000 0.0026 0.0027
vn -0.3974 0.8269 -0.3978
vn -1.0000 0.0023 0.0039
vn 0.3977 0.8257 -0.4000
vn -0.0039 0.0023 -1.0000
vn -0.0027 0.0026 -1.0000
vn 0.0032 0.0012 -1.0000
vn 0.0059 0.0121 -0.9999
vn 1.0000 0.0012 0.0020
vn 1.0000 0.0051 0.0049
vn 0.3995 0.8267 0.3961
vn 1.0000 0.0030 -0.0051
vn 1.0000 0.0034 -0.0035
vn -0.0018 0.0018 1.0000
vn 0.0043 0.0016 1.0000
vn -0.0026 0.0015 1.0000
vn -0.0054 0.0085 0.9999
vn 0.0078 0.0159 0.9998
vn -1.0000 0.0018 -0.0018
vn -0.9999 0.0099 0.0095
vn -0.0096 0.0099 -0.9999
vn -0.0000 -0.0000 -1.0000
vn 0.9998 0.0108 -0.0139
vn 1.0000 0.0013 0.0014
vn -0.0000 -0.0000 1.0000
vn -0.3550 -0.8649 0.3550
vn 0.6071 -0.6359 0.4766
vn 0.0015 -0.3891 0.9212
vn -0.0000 -1.0000 -0.0000
vn -0.6671 -0.3400 0.6628
vn -0.3691 -0.8591 -0.3546
vn -0.3148 -0.7210 0.6173
vn 0.3458 -0.8723 0.3458
vn 0.4877 -0.6242 -0.6103
vn 0.9224 -0.3863 -0.0000
vn 0.3691 -0.8591 -0.3546
vn 0.6671 -0.3400 0.6628
vn 0.3148 -0.7210 0.6173
vn 1.0000 -0.0000 -0.0000
vn -1.0000 -0.0000 -0.0000
vn -0.5642 -0.6029 -0.5642
vn 0.5669 -0.5977 -0.5669
vn -0.4766 -0.6359 -0.6071
vn 0.6126 -0.6246 -0.4843
vn 0.7005 -0.7129 -0.0328
vn -0.6103 -0.6242 0.4877
vn -0.6126 -0.6246 -0.4843
vn -0.7005 -0.7129 -0.0328
vn -0.0000 1.0000 -0.0000
vn 0.1362 0.9811 0.1376
vn -0.1373 0.9811 0.1362
vn -0.1367 0.9811 -0.1370
vn 0.1375 0.9810 -0.1366
vn 1.0000 0.0016 0.0003
vn 0.8737 0.4866 -0.0001
vn 0.8735 0.4868 -0.0001
vn 0.2322 0.9448 0.2313
vn 0.1793 0.9672 0.1797
vn 0.1797 0.9672 -0.1793
vn 0.2313 0.9448 -0.2322
vn -0.2322 0.9448 -0.2313
vn -0.1793 0.9672 -0.1797
vn -0.1797 0.9672 0.1793
vn -0.2313 0.9448 0.2322
vn -0.8735 0.4868 0.0001
vn -0.8737 0.4866 0.0001
vn -0.0001 0.4868 -0.8735
vn -0.0001 0.4866 -0.8737
vn 0.0001 0.4868 0.8735
vn 0.0001 0.4866 0.8737
vn -1.0000 0.0016 -0.0003
vn -0.0003 0.0016 1.0000
vn 0.0003 0.0016 -1.0000
vn 0.0006 0.7524 0.6587
vn 0.0004 0.8557 0.5175
vn 0.0006 0.7526 0.6585
vn 0.6587 0.7524 -0.0006
vn 0.5175 0.8557 -0.0004
vn 0.6585 0.7526 -0.0006
vn -0.6587 0.7524 0.0006
vn -0.5175 0.8557 0.0004
vn -0.6585 0.7526 0.0006
vn -0.0006 0.7524 -0.6587
vn -0.0004 0.8557 -0.5175
vn -0.0006 0.7526 -0.6585
vn 0.0010 0.4731 0.8810
vn 0.8810 0.4731 -0.0010
vn -0.0010 0.4731 -0.8810
vn -0.8810 0.4731 0.0010
vn 0.0196 -0.3002 -0.9537
vn 0.0015 -0.3891 -0.9212
vn -0.0000 -0.3863 0.9224
vn -0.0015 -0.3891 -0.9212
vn -0.0196 -0.3002 -0.9537
vn -0.9537 -0.3002 -0.0196
vn -0.9212 -0.3891 -0.0015
vn -0.9301 -0.3673 -0.0025
vn -0.9704 -0.2416 0.0036
vn 0.9301 -0.3673 -0.0025
vn 0.9567 -0.2907 -0.0170
vn -0.0170 -0.2907 0.9567
vn 0.0196 -0.3002 0.9537
vn 0.9704 -0.2416 0.0036
vt 0.149381 0.938839
vt 0.133972 0.979890
vt 0.133972 0.954915
vt 0.069867 0.995966
vt 0.069867 0.938839
vt 0.085277 0.979890
vt 0.308409 0.938839
vt 0.323819 0.979890
vt 0.308409 0.995966
vt 0.387923 0.938839
vt 0.387923 0.995966
vt 0.372514 0.954915
vt 0.293000 0.979890
vt 0.293000 0.954915
vt 0.228895 0.938839
vt 0.244305 0.979890
vt 0.228895 0.995966
vt 0.149381 0.995966
vt 0.213486 0.979890
vt 0.213486 0.954915
vt 0.164791 0.954915
vt 0.085277 0.954915
vt 0.323819 0.954915
vt 0.372514 0.979890
vt 0.244305 0.954915
vt 0.164791 0.979890
vt 0.468159 0.599043
vt 0.466018 0.622120
vt 0.459336 0.599043
vt 0.068057 0.291565
vt 0.019362 0.291565
vt 0.019362 0.242870
vt 0.068057 0.242870
vt 0.399719 0.622489
vt 0.406959 0.599228
vt 0.407868 0.622489
vt 0.427492 0.599228
vt 0.424197 0.622488
vt 0.418481 0.599228
vt 0.447946 0.598818
vt 0.440577 0.575967
vt 0.448872 0.575967
vt 0.731685 0.519062
vt 0.758416 0.540938
vt 0.670995 0.540938
vt 0.933259 0.540938
vt 0.845837 0.540938
vt 0.906528 0.519062
vt 0.785147 0.519062
vt 0.819107 0.519062
vt 0.583574 0.540938
vt 0.644264 0.519062
vt 0.734054 0.511495
vt 0.758416 0.505378
vt 0.738760 0.505465
vt 0.670995 0.505378
vt 0.697726 0.519062
vt 0.690651 0.505464
vt 0.695357 0.511495
vt 0.933259 0.505378
vt 0.845837 0.505378
vt 0.872568 0.519062
vt 0.867245 0.507709
vt 0.911321 0.508382
vt 0.779824 0.507709
vt 0.824430 0.507709
vt 0.583574 0.505378
vt 0.610305 0.519062
vt 0.605511 0.508382
vt 0.649588 0.507709
vt 0.330718 0.773360
vt 0.346128 0.773360
vt 0.346128 0.798334
vt 0.330718 0.798334
vt 0.407052 0.626639
vt 0.407052 0.651614
vt 0.391642 0.651614
vt 0.391642 0.626639
vt 0.083467 0.242870
vt 0.083467 0.291565
vt 0.315309 0.798334
vt 0.315309 0.773360
vt 0.003953 0.291565
vt 0.003953 0.242870
vt 0.470716 0.191208
vt 0.470716 0.175798
vt 0.519410 0.175798
vt 0.519410 0.191208
vt 0.422462 0.626639
vt 0.422462 0.651614
vt 0.019362 0.227461
vt 0.068057 0.227461
vt 0.519410 0.255312
vt 0.470716 0.255312
vt 0.470716 0.239903
vt 0.519410 0.239903
vt 0.455306 0.239903
vt 0.455306 0.191208
vt 0.407239 0.995067
vt 0.391830 0.995067
vt 0.391830 0.970092
vt 0.407239 0.970092
vt 0.559718 0.303567
vt 0.559718 0.278592
vt 0.575128 0.278592
vt 0.575128 0.303567
vt 0.422649 0.970092
vt 0.422649 0.995067
vt 0.534820 0.191208
vt 0.534820 0.239903
vt 0.068057 0.306975
vt 0.019362 0.306975
vt 0.590537 0.278592
vt 0.590537 0.303567
vt 0.356948 0.571448
vt 0.337863 0.552329
vt 0.337855 0.472061
vt 0.356948 0.452950
vt 0.238523 0.452996
vt 0.257607 0.472080
vt 0.257689 0.552252
vt 0.238523 0.571403
vt 0.238519 0.582916
vt 0.356943 0.582962
vt 0.356943 0.441436
vt 0.238519 0.441482
vt 0.368471 0.571468
vt 0.368471 0.452930
vt 0.227011 0.452996
vt 0.227011 0.571403
vt 0.475059 0.572060
vt 0.490067 0.557053
vt 0.490067 0.674391
vt 0.475059 0.659384
vt 0.387736 0.659384
vt 0.372728 0.674391
vt 0.372728 0.557053
vt 0.387736 0.572061
vt 0.387736 0.572060
vt 0.372728 0.557053
vt 0.450803 0.262996
vt 0.421343 0.233537
vt 0.421343 0.154023
vt 0.450803 0.124563
vt 0.341829 0.154023
vt 0.312369 0.124563
vt 0.312369 0.262996
vt 0.341829 0.233537
vt 0.430487 0.016021
vt 0.430487 0.006260
vt 0.568922 0.006260
vt 0.568922 0.016021
vt 0.707356 0.006260
vt 0.707356 0.016021
vt 0.845790 0.016021
vt 0.845790 0.006260
vt 0.984224 0.006260
vt 0.984224 0.016021
vt 0.121389 0.577360
vt 0.130665 0.577298
vt 0.130665 0.621461
vt 0.121389 0.621399
vt 0.150696 0.561699
vt 0.184897 0.530163
vt 0.184897 0.668597
vt 0.150696 0.637060
vt 0.038154 0.637060
vt 0.003953 0.668596
vt 0.003953 0.530162
vt 0.038154 0.561699
vt 0.132105 0.655651
vt 0.163642 0.689852
vt 0.025208 0.689852
vt 0.056744 0.655651
vt 0.058185 0.577298
vt 0.058185 0.621461
vt 0.072343 0.635620
vt 0.116506 0.635620
vt 0.132105 0.543108
vt 0.116507 0.563139
vt 0.072343 0.563139
vt 0.056745 0.543108
vt 0.025208 0.508907
vt 0.163642 0.508907
vt 0.067460 0.621399
vt 0.067461 0.577360
vt 0.072405 0.572415
vt 0.116445 0.572415
vt 0.116444 0.626344
vt 0.072405 0.626344
vt 0.080988 0.582963
vt 0.107862 0.582963
vt 0.110842 0.585943
vt 0.110842 0.612817
vt 0.078008 0.612817
vt 0.078008 0.585942
vt 0.107862 0.615796
vt 0.080988 0.615796
vt 0.104431 0.589374
vt 0.084419 0.589374
vt 0.104430 0.609385
vt 0.084419 0.609385
vt 0.391642 0.575967
vt 0.404835 0.575967
vt 0.398206 0.599228
vt 0.391642 0.599228
vt 0.424197 0.575967
vt 0.445785 0.621670
vt 0.439037 0.598818
vt 0.432356 0.621670
vt 0.432356 0.598818
vt 0.452720 0.575967
vt 0.466018 0.575967
vt 0.452720 0.599043
vt 0.391642 0.622489
vt 0.255015 0.730884
vt 0.255015 0.744250
vt 0.238035 0.744250
vt 0.238035 0.730884
vt 0.411917 0.622488
vt 0.411917 0.599228
vt 0.268380 0.761230
vt 0.255015 0.761230
vt 0.268380 0.744250
vt 0.411917 0.575967
vt 0.452720 0.622120
vt 0.255015 0.774595
vt 0.238035 0.774595
vt 0.238035 0.761230
vt 0.432356 0.575967
vt 0.224669 0.744250
vt 0.224669 0.761230
vt 0.332348 0.541855
vt 0.322571 0.541855
vt 0.322571 0.532078
vt 0.332348 0.532078
vt 0.293751 0.541855
vt 0.293751 0.532078
vt 0.303529 0.532078
vt 0.303529 0.541855
vt 0.308158 0.532078
vt 0.317935 0.532078
vt 0.317935 0.541855
vt 0.308158 0.541855
vt 0.289162 0.532018
vt 0.289162 0.541796
vt 0.279385 0.541796
vt 0.279385 0.532018
s 1
usemtl Japanese_lanterns
f 42/1/1 33/2/2 32/3/3
f 21/4/4 20/5/5 41/6/6
f 24/7/7 39/8/8 25/9/9
f 20/10/5 21/11/10 26/12/11
f 35/13/12 34/14/13 24/7/7
f 22/15/14 37/16/15 23/17/16
f 23/17/17 19/18/18 29/19/19
f 42/1/1 28/20/20 30/21/21
f 42/1/1 19/18/22 33/2/2
f 41/6/6 33/2/2 19/18/22
f 20/5/5 42/1/1 32/3/3
f 20/5/5 32/3/3 40/22/23
f 41/6/6 19/18/22 21/4/4
f 20/5/5 40/22/23 41/6/6
f 24/7/7 38/23/24 39/8/8
f 38/23/24 24/7/7 26/12/11
f 24/7/7 20/10/5 26/12/11
f 21/11/10 25/9/9 39/8/8
f 21/11/10 39/8/8 27/24/25
f 21/11/10 27/24/25 26/12/11
f 34/14/13 36/25/26 24/7/7
f 36/25/26 22/15/14 24/7/7
f 25/9/27 23/17/16 37/16/15
f 25/9/27 37/16/15 35/13/12
f 25/9/27 35/13/12 24/7/7
f 22/15/14 36/25/26 37/16/15
f 29/19/19 28/20/20 22/15/14
f 19/18/18 42/1/1 30/21/21
f 19/18/18 30/21/21 31/26/28
f 29/19/19 22/15/14 23/17/17
f 19/18/18 31/26/28 29/19/19
f 42/1/1 22/15/14 28/20/20
f 1/27/29 87/28/30 4/29/31
f 16/30/32 18/31/32 14/32/32 15/33/32
f 93/34/33 99/35/34 105/36/35
f 91/37/36 89/38/37 2/39/38
f 8/40/39 95/41/40 88/42/41
f 106/43/28 53/44/28 51/45/28
f 52/46/25 54/47/25 92/48/25
f 102/49/42 101/50/42 54/47/42
f 51/45/43 52/51/43 104/52/43
f 106/43/28 93/53/33 57/54/28
f 57/54/28 93/53/33 105/55/35
f 57/54/28 53/44/28 106/43/28
f 51/45/28 55/56/28 103/57/28
f 55/56/28 88/58/41 95/59/40
f 103/57/28 55/56/28 95/59/40
f 103/57/28 106/43/28 51/45/28
f 56/60/44 52/46/25 92/48/25
f 54/47/25 58/61/45 90/62/25
f 90/62/25 58/61/45 94/63/46
f 92/48/25 89/64/37 56/60/44
f 54/47/25 90/62/25 92/48/25
f 100/65/47 102/49/42 57/54/48
f 53/44/42 57/54/48 102/49/42
f 58/61/45 54/47/42 101/50/42
f 101/50/42 87/66/30 58/61/45
f 53/44/42 102/49/42 54/47/42
f 52/51/43 56/67/44 96/68/43
f 96/68/43 56/67/44 97/69/49
f 104/52/43 98/70/50 55/56/51
f 104/52/43 55/56/51 51/45/43
f 52/51/43 96/68/43 104/52/43
f 16/71/42 31/72/42 30/73/42 17/74/42
f 18/75/42 13/76/42 26/77/42 27/78/42
f 15/33/32 29/79/32 31/80/32 16/30/32
f 17/74/25 32/81/25 33/82/25 16/71/25
f 18/31/32 27/83/32 39/84/32 14/32/32
f 13/85/52 40/86/52 32/87/52 17/88/52
f 18/75/28 41/89/28 40/90/28 13/76/28
f 35/91/32 37/92/32 15/33/32 14/32/32
f 36/93/52 34/94/52 12/95/52 11/96/52
f 13/85/52 17/88/52 11/96/52 12/95/52
f 12/95/52 38/97/52 26/98/52 13/85/52
f 11/99/43 28/100/43 29/101/43 15/102/43
f 34/103/28 35/104/28 14/105/28 12/106/28
f 37/107/25 36/108/25 11/99/25 15/102/25
f 17/88/52 30/109/52 28/110/52 11/96/52
f 16/30/32 33/111/32 41/112/32 18/31/32
f 12/106/43 14/105/43 39/113/43 38/114/43
f 45/115/53 22/116/14 42/117/1 43/118/54
f 44/119/55 20/120/5 24/121/7 46/122/56
f 46/122/56 24/121/7 22/116/14 45/115/53
f 43/118/54 42/117/1 20/120/5 44/119/55
f 50/123/42 46/122/42 45/115/42 49/124/42
f 47/125/43 43/118/43 44/119/43 48/126/43
f 49/127/28 45/115/28 43/118/28 47/128/28
f 48/129/25 44/119/25 46/122/25 50/130/25
f 54/131/32 50/132/32 49/133/32 53/134/32
f 51/135/32 47/136/32 48/137/32 52/138/32
f 53/134/32 49/133/32 47/136/32 51/135/32
f 52/139/32 48/140/32 50/132/32 54/131/32
f 60/141/32 21/142/32 19/143/32 59/144/32
f 59/144/32 19/143/32 23/145/32 61/146/32
f 62/147/32 25/148/32 21/142/32 60/141/32
f 61/146/32 23/145/32 25/148/32 62/147/32
f 64/149/43 60/150/43 59/151/43 63/152/43
f 63/152/28 59/151/28 61/153/28 65/154/28
f 66/155/25 62/156/25 60/157/25 64/158/25
f 65/154/42 61/153/42 62/156/42 66/155/42
f 68/159/57 73/160/58 76/161/59 67/162/57
f 74/163/60 65/164/61 66/165/62 75/166/63
f 78/167/64 64/168/65 63/169/66 71/170/67
f 75/171/63 66/172/62 64/173/65 78/174/64
f 71/170/67 72/175/68 77/176/69 78/167/64
f 75/166/63 76/161/59 73/160/58 74/163/60
f 78/174/64 77/177/70 76/178/71 75/171/63
f 74/179/60 73/180/72 72/181/73 71/182/67
f 71/182/67 63/183/66 65/184/61 74/179/60
f 69/185/74 77/176/69 72/175/68 70/186/74
f 70/187/75 72/181/73 73/180/72 68/188/75
f 67/189/76 76/178/71 77/177/70 69/190/76
f 81/191/77 70/187/78 68/188/78 86/192/79
f 86/193/80 68/159/81 67/162/81 84/194/82
f 82/195/83 69/185/84 70/186/84 81/196/85
f 84/197/86 67/189/87 69/190/87 82/198/88
f 86/193/79 79/199/89 80/200/89 81/196/77
f 84/197/82 85/201/90 79/199/90 86/193/80
f 82/195/88 83/202/91 85/201/91 84/197/86
f 81/196/85 80/200/92 83/202/92 82/195/83
f 79/199/52 85/201/52 83/202/52 80/200/52
f 102/203/93 100/204/47 3/205/94 7/206/93
f 91/37/36 2/39/95 97/207/49
f 99/35/34 3/205/94 100/204/47
f 98/208/50 9/209/96 8/40/39
f 9/209/96 98/208/50 104/210/97 10/211/97
f 90/212/98 94/213/46 4/29/99 5/214/98
f 1/27/29 4/29/99 94/213/46
f 93/34/33 3/205/100 99/35/34
f 3/205/100 93/34/33 106/215/101 7/206/101
f 96/216/32 6/217/32 10/218/32 104/219/32
f 8/40/39 9/209/102 95/41/40
f 92/220/103 6/221/103 2/39/38 89/38/37
f 90/222/32 5/223/32 6/217/32 92/224/32
f 96/225/104 97/207/49 2/39/95 6/221/104
f 101/226/105 5/214/105 4/29/31 87/28/30
f 101/227/32 102/228/32 7/229/32 5/223/32
f 103/230/106 95/41/40 9/209/102 10/211/106
f 103/231/32 10/218/32 7/229/32 106/232/32
f 7/229/32 10/218/32 6/217/32 5/223/32
f 87/233/30 1/234/29 94/235/46 58/236/45
f 91/237/36 97/238/49 56/239/44 89/240/37
f 88/241/41 55/242/51 98/243/50 8/244/39
f 100/245/47 57/246/48 105/247/35 99/248/34
