# Blender 4.2.0
# www.blender.org
mtllib Coptis_trifolia_Monton_hojas.mtl
o Coptis_trifolia_Monton_hojas
v 0.000000 0.509994 0.247333
v 6.925334 0.150905 -0.000000
v 0.000000 0.283761 -6.430667
v -6.925334 0.134727 -0.000000
v 0.000000 0.001871 6.925334
vn -0.0110 0.9998 0.0182
vn -0.1361 0.9905 0.0222
vn -0.0112 0.9887 0.1496
vn 0.1135 0.9933 0.0222
vn -0.0112 0.9940 -0.1091
vt 0.500000 0.500000
vt 1.000000 0.000000
vt 1.000000 1.000000
vt 0.000000 1.000000
vt 0.000000 0.000000
s 1
usemtl Material.Coptis_trifolia_Monton_hojas
f 1/1/1 2/2/2 3/3/3
f 1/1/1 4/4/4 5/5/5
f 5/5/5 2/2/2 1/1/1
f 3/3/3 4/4/4 1/1/1
